<mxfile host="65bd71144e">
    <diagram name="第 1 页" id="mqMLETEW_sxK-47a7DRf">
        <mxGraphModel dx="807" dy="455" grid="1" gridSize="10" guides="1" tooltips="1" connect="1" arrows="1" fold="1" page="1" pageScale="1" pageWidth="827" pageHeight="1169" math="0" shadow="0">
            <root>
                <mxCell id="0"/>
                <mxCell id="1" parent="0"/>
                <mxCell id="SMfsCm32x8PexnDe32GZ-1" value="Kernel Virtual Addresses" style="swimlane;fontStyle=1;align=center;verticalAlign=top;childLayout=stackLayout;horizontal=1;startSize=26;horizontalStack=0;resizeParent=1;resizeParentMax=0;resizeLast=0;collapsible=1;marginBottom=0;whiteSpace=wrap;html=1;fontFamily=Verdana;fillColor=#f8cecc;strokeColor=#b85450;movable=0;resizable=0;rotatable=0;deletable=0;editable=0;connectable=0;locked=0;fontSize=12;" parent="1" vertex="1">
                    <mxGeometry x="90" y="150" width="200" height="104" as="geometry"/>
                </mxCell>
                <mxCell id="SMfsCm32x8PexnDe32GZ-2" value="Virtual Address" style="text;strokeColor=#b85450;fillColor=#f8cecc;align=center;verticalAlign=top;spacingLeft=4;spacingRight=4;overflow=hidden;rotatable=0;points=[[0,0.5],[1,0.5]];portConstraint=eastwest;whiteSpace=wrap;html=1;fontFamily=Verdana;movable=0;resizable=0;deletable=0;editable=0;connectable=0;locked=0;fontSize=12;" parent="SMfsCm32x8PexnDe32GZ-1" vertex="1">
                    <mxGeometry y="26" width="200" height="26" as="geometry"/>
                </mxCell>
                <mxCell id="SMfsCm32x8PexnDe32GZ-4" value="Virtual Address" style="text;strokeColor=#b85450;fillColor=#f8cecc;align=center;verticalAlign=top;spacingLeft=4;spacingRight=4;overflow=hidden;rotatable=0;points=[[0,0.5],[1,0.5]];portConstraint=eastwest;whiteSpace=wrap;html=1;fontFamily=Verdana;movable=0;resizable=0;deletable=0;editable=0;connectable=0;locked=0;fontSize=12;" parent="SMfsCm32x8PexnDe32GZ-1" vertex="1">
                    <mxGeometry y="52" width="200" height="26" as="geometry"/>
                </mxCell>
                <mxCell id="SMfsCm32x8PexnDe32GZ-199" value="..." style="text;strokeColor=#b85450;fillColor=#f8cecc;align=center;verticalAlign=top;spacingLeft=4;spacingRight=4;overflow=hidden;rotatable=0;points=[[0,0.5],[1,0.5]];portConstraint=eastwest;whiteSpace=wrap;html=1;fontFamily=Verdana;movable=0;resizable=0;deletable=0;editable=0;connectable=0;locked=0;fontSize=12;" parent="SMfsCm32x8PexnDe32GZ-1" vertex="1">
                    <mxGeometry y="78" width="200" height="26" as="geometry"/>
                </mxCell>
                <mxCell id="SMfsCm32x8PexnDe32GZ-202" value="Kernel Page Table" style="swimlane;fontStyle=1;align=center;verticalAlign=top;childLayout=stackLayout;horizontal=1;startSize=26;horizontalStack=0;resizeParent=1;resizeParentMax=0;resizeLast=0;collapsible=1;marginBottom=0;whiteSpace=wrap;html=1;fontFamily=Verdana;fillColor=#f8cecc;strokeColor=#b85450;movable=0;resizable=0;rotatable=0;deletable=0;editable=0;connectable=0;locked=0;fontSize=12;" parent="1" vertex="1">
                    <mxGeometry x="370" y="150" width="160" height="104" as="geometry"/>
                </mxCell>
                <mxCell id="SMfsCm32x8PexnDe32GZ-203" value="Entry" style="text;strokeColor=#b85450;fillColor=#f8cecc;align=center;verticalAlign=top;spacingLeft=4;spacingRight=4;overflow=hidden;rotatable=0;points=[[0,0.5],[1,0.5]];portConstraint=eastwest;whiteSpace=wrap;html=1;fontFamily=Verdana;movable=0;resizable=0;deletable=0;editable=0;connectable=0;locked=0;fontSize=12;" parent="SMfsCm32x8PexnDe32GZ-202" vertex="1">
                    <mxGeometry y="26" width="160" height="26" as="geometry"/>
                </mxCell>
                <mxCell id="SMfsCm32x8PexnDe32GZ-204" value="Entry" style="text;strokeColor=#b85450;fillColor=#f8cecc;align=center;verticalAlign=top;spacingLeft=4;spacingRight=4;overflow=hidden;rotatable=0;points=[[0,0.5],[1,0.5]];portConstraint=eastwest;whiteSpace=wrap;html=1;fontFamily=Verdana;movable=0;resizable=0;deletable=0;editable=0;connectable=0;locked=0;fontSize=12;" parent="SMfsCm32x8PexnDe32GZ-202" vertex="1">
                    <mxGeometry y="52" width="160" height="26" as="geometry"/>
                </mxCell>
                <mxCell id="SMfsCm32x8PexnDe32GZ-205" value="..." style="text;strokeColor=#b85450;fillColor=#f8cecc;align=center;verticalAlign=top;spacingLeft=4;spacingRight=4;overflow=hidden;rotatable=0;points=[[0,0.5],[1,0.5]];portConstraint=eastwest;whiteSpace=wrap;html=1;fontFamily=Verdana;movable=0;resizable=0;deletable=0;editable=0;connectable=0;locked=0;fontSize=12;" parent="SMfsCm32x8PexnDe32GZ-202" vertex="1">
                    <mxGeometry y="78" width="160" height="26" as="geometry"/>
                </mxCell>
                <mxCell id="34" value="" style="group;fontFamily=Verdana;fontSize=12;movable=0;resizable=0;rotatable=0;deletable=0;editable=0;connectable=0;" parent="1" vertex="1" connectable="0">
                    <mxGeometry x="210" y="320" width="240" height="182" as="geometry"/>
                </mxCell>
                <mxCell id="2" value="..." style="text;strokeColor=#82b366;fillColor=#d5e8d4;align=center;verticalAlign=top;spacingLeft=4;spacingRight=4;overflow=hidden;rotatable=0;points=[[0,0.5],[1,0.5]];portConstraint=eastwest;whiteSpace=wrap;html=1;fontFamily=Verdana;movable=0;resizable=0;deletable=0;editable=0;connectable=0;locked=0;fontSize=12;" parent="34" vertex="1">
                    <mxGeometry y="26" width="120" height="26" as="geometry"/>
                </mxCell>
                <mxCell id="5" value="Page" style="text;strokeColor=#82b366;fillColor=#d5e8d4;align=center;verticalAlign=top;spacingLeft=4;spacingRight=4;overflow=hidden;rotatable=0;points=[[0,0.5],[1,0.5]];portConstraint=eastwest;whiteSpace=wrap;html=1;fontFamily=Verdana;movable=0;resizable=0;deletable=0;editable=0;connectable=0;locked=0;fontSize=12;" parent="34" vertex="1">
                    <mxGeometry y="52" width="120" height="26" as="geometry"/>
                </mxCell>
                <mxCell id="4" value="Page" style="text;strokeColor=#82b366;fillColor=#d5e8d4;align=center;verticalAlign=top;spacingLeft=4;spacingRight=4;overflow=hidden;rotatable=0;points=[[0,0.5],[1,0.5]];portConstraint=eastwest;whiteSpace=wrap;html=1;fontFamily=Verdana;movable=0;resizable=0;deletable=0;editable=0;connectable=0;locked=0;fontSize=12;" parent="34" vertex="1">
                    <mxGeometry y="78" width="120" height="26" as="geometry"/>
                </mxCell>
                <mxCell id="3" value="Page" style="text;strokeColor=#82b366;fillColor=#d5e8d4;align=center;verticalAlign=top;spacingLeft=4;spacingRight=4;overflow=hidden;rotatable=0;points=[[0,0.5],[1,0.5]];portConstraint=eastwest;whiteSpace=wrap;html=1;fontFamily=Verdana;movable=0;resizable=0;deletable=0;editable=0;connectable=0;locked=0;fontSize=12;" parent="34" vertex="1">
                    <mxGeometry y="104" width="120" height="26" as="geometry"/>
                </mxCell>
                <mxCell id="SMfsCm32x8PexnDe32GZ-213" value="..." style="text;strokeColor=#82b366;fillColor=#d5e8d4;align=center;verticalAlign=top;spacingLeft=4;spacingRight=4;overflow=hidden;rotatable=0;points=[[0,0.5],[1,0.5]];portConstraint=eastwest;whiteSpace=wrap;html=1;fontFamily=Verdana;movable=0;resizable=0;deletable=0;editable=0;connectable=0;locked=0;fontSize=12;" parent="34" vertex="1">
                    <mxGeometry y="130" width="120" height="26" as="geometry"/>
                </mxCell>
                <mxCell id="40" value="" style="group;fontFamily=Verdana;fontSize=12;movable=0;resizable=0;rotatable=0;deletable=0;editable=0;connectable=0;" parent="34" vertex="1" connectable="0">
                    <mxGeometry width="240" height="156" as="geometry"/>
                </mxCell>
                <mxCell id="SMfsCm32x8PexnDe32GZ-210" value="Kernel Pages" style="swimlane;fontStyle=1;align=center;verticalAlign=top;childLayout=stackLayout;horizontal=1;startSize=26;horizontalStack=0;resizeParent=1;resizeParentMax=0;resizeLast=0;collapsible=1;marginBottom=0;whiteSpace=wrap;html=1;fontFamily=Verdana;fillColor=#d5e8d4;strokeColor=#82b366;movable=0;resizable=0;rotatable=0;deletable=0;editable=0;connectable=0;locked=0;container=0;fontSize=12;" parent="40" vertex="1">
                    <mxGeometry width="120" height="156" as="geometry"/>
                </mxCell>
                <mxCell id="T0HQovEdNpzxEJuECDTL-35" value="User Pages" style="swimlane;fontStyle=1;align=center;verticalAlign=top;childLayout=stackLayout;horizontal=1;startSize=26;horizontalStack=0;resizeParent=1;resizeParentMax=0;resizeLast=0;collapsible=1;marginBottom=0;whiteSpace=wrap;html=1;fontFamily=Verdana;fillColor=#dae8fc;strokeColor=#6c8ebf;movable=0;resizable=0;rotatable=0;deletable=0;editable=0;connectable=0;locked=0;container=0;fontSize=12;" parent="40" vertex="1">
                    <mxGeometry x="120" width="120" height="156" as="geometry"/>
                </mxCell>
                <mxCell id="T0HQovEdNpzxEJuECDTL-36" value="..." style="text;strokeColor=#6c8ebf;fillColor=#dae8fc;align=center;verticalAlign=top;spacingLeft=4;spacingRight=4;overflow=hidden;rotatable=0;points=[[0,0.5],[1,0.5]];portConstraint=eastwest;whiteSpace=wrap;html=1;fontFamily=Verdana;movable=0;resizable=0;deletable=0;editable=0;connectable=0;locked=0;fontSize=12;" parent="40" vertex="1">
                    <mxGeometry x="120" y="26" width="120" height="26" as="geometry"/>
                </mxCell>
                <mxCell id="T0HQovEdNpzxEJuECDTL-37" value="Page" style="text;strokeColor=#6c8ebf;fillColor=#dae8fc;align=center;verticalAlign=top;spacingLeft=4;spacingRight=4;overflow=hidden;rotatable=0;points=[[0,0.5],[1,0.5]];portConstraint=eastwest;whiteSpace=wrap;html=1;fontFamily=Verdana;movable=0;resizable=0;deletable=0;editable=0;connectable=0;locked=0;fontSize=12;" parent="40" vertex="1">
                    <mxGeometry x="120" y="52" width="120" height="26" as="geometry"/>
                </mxCell>
                <mxCell id="T0HQovEdNpzxEJuECDTL-38" value="Page" style="text;strokeColor=#6c8ebf;fillColor=#dae8fc;align=center;verticalAlign=top;spacingLeft=4;spacingRight=4;overflow=hidden;rotatable=0;points=[[0,0.5],[1,0.5]];portConstraint=eastwest;whiteSpace=wrap;html=1;fontFamily=Verdana;movable=0;resizable=0;deletable=0;editable=0;connectable=0;locked=0;fontSize=12;" parent="40" vertex="1">
                    <mxGeometry x="120" y="78" width="120" height="26" as="geometry"/>
                </mxCell>
                <mxCell id="T0HQovEdNpzxEJuECDTL-39" value="Page" style="text;strokeColor=#6c8ebf;fillColor=#dae8fc;align=center;verticalAlign=top;spacingLeft=4;spacingRight=4;overflow=hidden;rotatable=0;points=[[0,0.5],[1,0.5]];portConstraint=eastwest;whiteSpace=wrap;html=1;fontFamily=Verdana;movable=0;resizable=0;deletable=0;editable=0;connectable=0;locked=0;fontSize=12;" parent="40" vertex="1">
                    <mxGeometry x="120" y="104" width="120" height="26" as="geometry"/>
                </mxCell>
                <mxCell id="T0HQovEdNpzxEJuECDTL-41" value="..." style="text;strokeColor=#6c8ebf;fillColor=#dae8fc;align=center;verticalAlign=top;spacingLeft=4;spacingRight=4;overflow=hidden;rotatable=0;points=[[0,0.5],[1,0.5]];portConstraint=eastwest;whiteSpace=wrap;html=1;fontFamily=Verdana;movable=0;resizable=0;deletable=0;editable=0;connectable=0;locked=0;fontSize=12;" parent="40" vertex="1">
                    <mxGeometry x="120" y="130" width="120" height="26" as="geometry"/>
                </mxCell>
                <mxCell id="36" style="edgeStyle=orthogonalEdgeStyle;html=1;exitX=1;exitY=0.5;exitDx=0;exitDy=0;entryX=0;entryY=0.5;entryDx=0;entryDy=0;fontFamily=Verdana;fontSize=12;movable=0;resizable=0;rotatable=0;deletable=0;editable=0;connectable=0;" parent="1" source="SMfsCm32x8PexnDe32GZ-2" target="SMfsCm32x8PexnDe32GZ-204" edge="1">
                    <mxGeometry relative="1" as="geometry">
                        <Array as="points">
                            <mxPoint x="290" y="190"/>
                            <mxPoint x="330" y="190"/>
                            <mxPoint x="330" y="215"/>
                        </Array>
                    </mxGeometry>
                </mxCell>
                <mxCell id="37" style="edgeStyle=orthogonalEdgeStyle;html=1;entryX=0;entryY=0.5;entryDx=0;entryDy=0;elbow=vertical;fontFamily=Verdana;fontSize=12;movable=0;resizable=0;rotatable=0;deletable=0;editable=0;connectable=0;" parent="1" source="SMfsCm32x8PexnDe32GZ-4" target="SMfsCm32x8PexnDe32GZ-203" edge="1">
                    <mxGeometry relative="1" as="geometry"/>
                </mxCell>
                <mxCell id="38" style="edgeStyle=orthogonalEdgeStyle;html=1;entryX=0;entryY=0.5;entryDx=0;entryDy=0;fontFamily=Verdana;fontSize=12;movable=0;resizable=0;rotatable=0;deletable=0;editable=0;connectable=0;" parent="1" source="SMfsCm32x8PexnDe32GZ-203" target="5" edge="1">
                    <mxGeometry relative="1" as="geometry">
                        <Array as="points">
                            <mxPoint x="570" y="190"/>
                            <mxPoint x="570" y="280"/>
                            <mxPoint x="190" y="280"/>
                            <mxPoint x="190" y="385"/>
                        </Array>
                    </mxGeometry>
                </mxCell>
                <mxCell id="39" style="edgeStyle=orthogonalEdgeStyle;html=1;entryX=0;entryY=0.5;entryDx=0;entryDy=0;elbow=vertical;fontFamily=Verdana;fontSize=12;movable=0;resizable=0;rotatable=0;deletable=0;editable=0;connectable=0;" parent="1" source="SMfsCm32x8PexnDe32GZ-204" target="3" edge="1">
                    <mxGeometry relative="1" as="geometry">
                        <Array as="points">
                            <mxPoint x="560" y="215"/>
                            <mxPoint x="560" y="300"/>
                            <mxPoint x="170" y="300"/>
                            <mxPoint x="170" y="437"/>
                        </Array>
                    </mxGeometry>
                </mxCell>
                <mxCell id="44" value="User Process 1 Virtual Addresses" style="swimlane;fontStyle=1;align=center;verticalAlign=top;childLayout=stackLayout;horizontal=1;startSize=26;horizontalStack=0;resizeParent=1;resizeParentMax=0;resizeLast=0;collapsible=1;marginBottom=0;whiteSpace=wrap;html=1;fontFamily=Verdana;fillColor=#ffe6cc;strokeColor=#d79b00;movable=0;resizable=0;rotatable=0;deletable=0;editable=0;connectable=0;locked=0;fontSize=12;" parent="1" vertex="1">
                    <mxGeometry x="50" y="510" width="250" height="104" as="geometry"/>
                </mxCell>
                <mxCell id="45" value="Virtual Address" style="text;strokeColor=#d79b00;fillColor=#ffe6cc;align=center;verticalAlign=top;spacingLeft=4;spacingRight=4;overflow=hidden;rotatable=0;points=[[0,0.5],[1,0.5]];portConstraint=eastwest;whiteSpace=wrap;html=1;fontFamily=Verdana;movable=0;resizable=0;deletable=0;editable=0;connectable=0;locked=0;fontSize=12;" parent="44" vertex="1">
                    <mxGeometry y="26" width="250" height="26" as="geometry"/>
                </mxCell>
                <mxCell id="46" value="Virtual Address" style="text;strokeColor=#d79b00;fillColor=#ffe6cc;align=center;verticalAlign=top;spacingLeft=4;spacingRight=4;overflow=hidden;rotatable=0;points=[[0,0.5],[1,0.5]];portConstraint=eastwest;whiteSpace=wrap;html=1;fontFamily=Verdana;movable=0;resizable=0;deletable=0;editable=0;connectable=0;locked=0;fontSize=12;" parent="44" vertex="1">
                    <mxGeometry y="52" width="250" height="26" as="geometry"/>
                </mxCell>
                <mxCell id="47" value="..." style="text;strokeColor=#d79b00;fillColor=#ffe6cc;align=center;verticalAlign=top;spacingLeft=4;spacingRight=4;overflow=hidden;rotatable=0;points=[[0,0.5],[1,0.5]];portConstraint=eastwest;whiteSpace=wrap;html=1;fontFamily=Verdana;movable=0;resizable=0;deletable=0;editable=0;connectable=0;locked=0;fontSize=12;" parent="44" vertex="1">
                    <mxGeometry y="78" width="250" height="26" as="geometry"/>
                </mxCell>
                <mxCell id="48" value="User Process 1 Page Table" style="swimlane;fontStyle=1;align=center;verticalAlign=top;childLayout=stackLayout;horizontal=1;startSize=26;horizontalStack=0;resizeParent=1;resizeParentMax=0;resizeLast=0;collapsible=1;marginBottom=0;whiteSpace=wrap;html=1;fontFamily=Verdana;fillColor=#ffe6cc;strokeColor=#d79b00;movable=0;resizable=0;rotatable=0;deletable=0;editable=0;connectable=0;locked=0;fontSize=12;" parent="1" vertex="1">
                    <mxGeometry x="370" y="510" width="220" height="104" as="geometry"/>
                </mxCell>
                <mxCell id="49" value="Entry" style="text;strokeColor=#d79b00;fillColor=#ffe6cc;align=center;verticalAlign=top;spacingLeft=4;spacingRight=4;overflow=hidden;rotatable=0;points=[[0,0.5],[1,0.5]];portConstraint=eastwest;whiteSpace=wrap;html=1;fontFamily=Verdana;movable=0;resizable=0;deletable=0;editable=0;connectable=0;locked=0;fontSize=12;" parent="48" vertex="1">
                    <mxGeometry y="26" width="220" height="26" as="geometry"/>
                </mxCell>
                <mxCell id="50" value="Entry" style="text;strokeColor=#d79b00;fillColor=#ffe6cc;align=center;verticalAlign=top;spacingLeft=4;spacingRight=4;overflow=hidden;rotatable=0;points=[[0,0.5],[1,0.5]];portConstraint=eastwest;whiteSpace=wrap;html=1;fontFamily=Verdana;movable=0;resizable=0;deletable=0;editable=0;connectable=0;locked=0;fontSize=12;" parent="48" vertex="1">
                    <mxGeometry y="52" width="220" height="26" as="geometry"/>
                </mxCell>
                <mxCell id="51" value="..." style="text;strokeColor=#d79b00;fillColor=#ffe6cc;align=center;verticalAlign=top;spacingLeft=4;spacingRight=4;overflow=hidden;rotatable=0;points=[[0,0.5],[1,0.5]];portConstraint=eastwest;whiteSpace=wrap;html=1;fontFamily=Verdana;movable=0;resizable=0;deletable=0;editable=0;connectable=0;locked=0;fontSize=12;" parent="48" vertex="1">
                    <mxGeometry y="78" width="220" height="26" as="geometry"/>
                </mxCell>
                <mxCell id="64" style="edgeStyle=orthogonalEdgeStyle;html=1;entryX=0;entryY=0.5;entryDx=0;entryDy=0;elbow=vertical;fontFamily=Verdana;fontSize=12;movable=0;resizable=0;rotatable=0;deletable=0;editable=0;connectable=0;" parent="1" source="52" target="57" edge="1">
                    <mxGeometry relative="1" as="geometry"/>
                </mxCell>
                <mxCell id="52" value="User Process 2 Virtual Addresses" style="swimlane;fontStyle=1;align=center;verticalAlign=top;childLayout=stackLayout;horizontal=1;startSize=26;horizontalStack=0;resizeParent=1;resizeParentMax=0;resizeLast=0;collapsible=1;marginBottom=0;whiteSpace=wrap;html=1;fontFamily=Verdana;fillColor=#fff2cc;strokeColor=#d6b656;movable=0;resizable=0;rotatable=0;deletable=0;editable=0;connectable=0;locked=0;fontSize=12;" parent="1" vertex="1">
                    <mxGeometry x="50" y="650" width="250" height="78" as="geometry"/>
                </mxCell>
                <mxCell id="53" value="Virtual Address" style="text;strokeColor=#d6b656;fillColor=#fff2cc;align=center;verticalAlign=top;spacingLeft=4;spacingRight=4;overflow=hidden;rotatable=0;points=[[0,0.5],[1,0.5]];portConstraint=eastwest;whiteSpace=wrap;html=1;fontFamily=Verdana;movable=0;resizable=0;deletable=0;editable=0;connectable=0;locked=0;fontSize=12;" parent="52" vertex="1">
                    <mxGeometry y="26" width="250" height="26" as="geometry"/>
                </mxCell>
                <mxCell id="55" value="..." style="text;strokeColor=#d6b656;fillColor=#fff2cc;align=center;verticalAlign=top;spacingLeft=4;spacingRight=4;overflow=hidden;rotatable=0;points=[[0,0.5],[1,0.5]];portConstraint=eastwest;whiteSpace=wrap;html=1;fontFamily=Verdana;movable=0;resizable=0;deletable=0;editable=0;connectable=0;locked=0;fontSize=12;" parent="52" vertex="1">
                    <mxGeometry y="52" width="250" height="26" as="geometry"/>
                </mxCell>
                <mxCell id="56" value="User Process 2 Page Table" style="swimlane;fontStyle=1;align=center;verticalAlign=top;childLayout=stackLayout;horizontal=1;startSize=26;horizontalStack=0;resizeParent=1;resizeParentMax=0;resizeLast=0;collapsible=1;marginBottom=0;whiteSpace=wrap;html=1;fontFamily=Verdana;fillColor=#fff2cc;strokeColor=#d6b656;movable=0;resizable=0;rotatable=0;deletable=0;editable=0;connectable=0;locked=0;fontSize=12;" parent="1" vertex="1">
                    <mxGeometry x="370" y="650" width="220" height="78" as="geometry"/>
                </mxCell>
                <mxCell id="57" value="Entry" style="text;strokeColor=#d6b656;fillColor=#fff2cc;align=center;verticalAlign=top;spacingLeft=4;spacingRight=4;overflow=hidden;rotatable=0;points=[[0,0.5],[1,0.5]];portConstraint=eastwest;whiteSpace=wrap;html=1;fontFamily=Verdana;movable=0;resizable=0;deletable=0;editable=0;connectable=0;locked=0;fontSize=12;" parent="56" vertex="1">
                    <mxGeometry y="26" width="220" height="26" as="geometry"/>
                </mxCell>
                <mxCell id="59" value="..." style="text;strokeColor=#d6b656;fillColor=#fff2cc;align=center;verticalAlign=top;spacingLeft=4;spacingRight=4;overflow=hidden;rotatable=0;points=[[0,0.5],[1,0.5]];portConstraint=eastwest;whiteSpace=wrap;html=1;fontFamily=Verdana;movable=0;resizable=0;deletable=0;editable=0;connectable=0;locked=0;fontSize=12;" parent="56" vertex="1">
                    <mxGeometry y="52" width="220" height="26" as="geometry"/>
                </mxCell>
                <mxCell id="65" style="edgeStyle=orthogonalEdgeStyle;html=1;entryX=0;entryY=0.5;entryDx=0;entryDy=0;elbow=vertical;fontFamily=Verdana;fontSize=12;movable=0;resizable=0;rotatable=0;deletable=0;editable=0;connectable=0;" parent="1" source="45" target="50" edge="1">
                    <mxGeometry relative="1" as="geometry"/>
                </mxCell>
                <mxCell id="66" style="edgeStyle=orthogonalEdgeStyle;html=1;entryX=0;entryY=0.5;entryDx=0;entryDy=0;elbow=vertical;fontFamily=Verdana;fontSize=12;movable=0;resizable=0;rotatable=0;deletable=0;editable=0;connectable=0;" parent="1" source="46" target="49" edge="1">
                    <mxGeometry relative="1" as="geometry"/>
                </mxCell>
                <mxCell id="67" style="edgeStyle=orthogonalEdgeStyle;html=1;entryX=1;entryY=0.5;entryDx=0;entryDy=0;elbow=vertical;fontFamily=Verdana;fontSize=12;movable=0;resizable=0;rotatable=0;deletable=0;editable=0;connectable=0;" parent="1" source="49" target="T0HQovEdNpzxEJuECDTL-37" edge="1">
                    <mxGeometry relative="1" as="geometry">
                        <Array as="points">
                            <mxPoint x="610" y="549"/>
                            <mxPoint x="610" y="385"/>
                        </Array>
                    </mxGeometry>
                </mxCell>
                <mxCell id="68" style="edgeStyle=orthogonalEdgeStyle;html=1;entryX=1;entryY=0.75;entryDx=0;entryDy=0;elbow=vertical;fontFamily=Verdana;fontSize=12;movable=0;resizable=0;rotatable=0;deletable=0;editable=0;connectable=0;" parent="1" source="50" target="T0HQovEdNpzxEJuECDTL-35" edge="1">
                    <mxGeometry relative="1" as="geometry">
                        <Array as="points">
                            <mxPoint x="630" y="575"/>
                            <mxPoint x="630" y="437"/>
                        </Array>
                    </mxGeometry>
                </mxCell>
                <mxCell id="69" style="edgeStyle=orthogonalEdgeStyle;html=1;elbow=vertical;fontFamily=Verdana;fontSize=12;movable=0;resizable=0;rotatable=0;deletable=0;editable=0;connectable=0;" parent="1" source="57" target="T0HQovEdNpzxEJuECDTL-38" edge="1">
                    <mxGeometry relative="1" as="geometry">
                        <Array as="points">
                            <mxPoint x="650" y="689"/>
                            <mxPoint x="650" y="411"/>
                        </Array>
                    </mxGeometry>
                </mxCell>
            </root>
        </mxGraphModel>
    </diagram>
</mxfile>